<svg xmlns="http://www.w3.org/2000/svg" xmlns:xlink="http://www.w3.org/1999/xlink" fill="none" version="1.1" width="414" height="276" viewBox="0 0 414 276"><defs><linearGradient x1="0.4999988079071045" y1="0.9999964237213135" x2="0.4999988079071045" y2="-2.0632947794752e-8" id="master_svg0_120_008"><stop offset="0%" stop-color="#719BFF" stop-opacity="1"/><stop offset="77.08330154418945%" stop-color="#DA8AFF" stop-opacity="1"/></linearGradient></defs><g><path d="M31.8462,0L382.154,-0.00000137868C399.742,-6.17265e-7,414,14.2237,414,31.7696L414,77.5603C414,83.9451,412.04,90.1768,408.385,95.4174L407.421,96.7993C400.241,107.09,400.52,120.821,408.11,130.814C411.932,135.844,414,141.983,414,148.295L414,244.23C414,261.776,399.742,276,382.154,276L31.846,275.999C14.2579,275.999,-0.0000419242,261.775,-0.000010779,244.229L0.00017568,148.294C0.000206329,141.982,2.06842,135.843,5.88974,130.813C13.4802,120.82,13.7588,107.089,6.57992,96.7982L5.61589,95.4163C1.95995,90.1757,0.00020889,83.9441,0.000178802,77.5593L0.0000289686,31.7698C-0.0000309986,14.2238,14.258,0,31.8462,0Z" fill="url(#master_svg0_120_008)" fill-opacity="1"/></g></svg>